<svg width="22" height="17" fill="none" xmlns="http://www.w3.org/2000/svg"><path d="M1.47498.528625v-.5H.974976v.5h.500004Zm19.62082 0h.5v-.5h-.5v.5Zm0 2.000005v.5h.5v-.5h-.5Zm-19.62082 0H.974976v.5h.500004v-.5Zm0 5.1806v-.5H.974976v.5h.500004Zm19.62082 0h.5v-.5h-.5v.5Zm0 2v.49997h.5v-.49997h-.5Zm-19.62082 0H.974976v.49997h.500004v-.49997Zm0 4.79077V14H.974976v.5h.500004Zm0 2H.974976v.5h.500004v-.5Zm19.62082 0v.5h.5v-.5h-.5Zm0-2h.5V14h-.5v.5ZM1.97498.028626h-.5V1.02863h.5V.028626Zm18.62082 0H1.97498V1.02863H20.5958V.028626Zm.5 0h-.5V1.02863h.5V.028626Zm.5 1.000004V.528625h-1v.500005h1Zm0 1v-1h-1v1h1Zm0 .5v-.5h-1v.5h1Zm-1 .5h.5v-1h-.5v1Zm-18.62082 0H20.5958v-1H1.97498v1Zm-.5 0h.5v-1h-.5v1Zm-.500004-1v.5H1.97498v-.5H.974976Zm0-1v1H1.97498v-1H.974976Zm0-.500005v.500005H1.97498V.528625H.974976ZM1.97498 7.20923h-.5v1h.5v-1Zm18.62082 0H1.97498v1H20.5958v-1Zm.5 0h-.5v1h.5v-1Zm.5 1v-.5h-1v.5h1Zm0 1v-1h-1v1h1Zm0 .5v-.5h-1v.5h1Zm-1 .49997h.5v-.99997h-.5v.99997Zm-18.62082 0H20.5958v-.99997H1.97498v.99997Zm-.5 0h.5v-.99997h-.5v.99997Zm-.500004-.99997v.5H1.97498v-.5H.974976Zm0-1v1H1.97498v-1H.974976Zm0-.5v.5H1.97498v-.5H.974976ZM1.47498 15h.5v-1h-.5v1Zm.5 0v-.5H.974976v.5H1.97498Zm0 1v-1H.974976v1H1.97498Zm0 .5V16H.974976v.5H1.97498Zm0-.5h-.5v1h.5v-1Zm18.62082 0H1.97498v1H20.5958v-1Zm.5 0h-.5v1h.5v-1Zm-.5 0v.5h1V16h-1Zm0-1v1h1v-1h-1Zm0-.5v.5h1v-.5h-1Zm0 .5h.5v-1h-.5v1ZM1.97498 15H20.5958v-1H1.97498v1Z" fill="#333"/></svg>