<svg width="183" height="26" fill="none" xmlns="http://www.w3.org/2000/svg"><path fill-rule="evenodd" clip-rule="evenodd" d="M7.0724 14.0934H5.77233v6.94H0V3.20718h5.77324v6.48955h1.41897l3.17589-6.48955h5.8696l-4.0903 8.34292 4.7156 9.4833h-6.3517l-3.43977-6.94h.00087Zm19.7009.4273h-.3369l-3.6561 3.1611v3.3516h-5.5326V6.77242h5.5326v5.37148h.4812l3.5118-3.04271V6.77242h5.5327V21.0334h-5.5318v-6.5127h-.0009Zm16.7432 1.4742h-3.7534v5.0385h-5.5318V6.77242h5.5318v4.84888h3.7534V6.77242h5.5319V21.0334h-5.5319v-5.0385Zm14.6729-9.4842c.9945 0 1.9161.15132 2.7658.45135.8304.28856 1.5832.76013 2.2018 1.37892.6171.61778 1.1026 1.3905 1.4553 2.31723.3527.9275.5293 2.0082.5293 3.2447 0 1.2516-.1766 2.3412-.5293 3.2679-.3527.9267-.8382 1.6959-1.4553 2.3056-.6181.6104-1.366 1.0772-2.1892 1.3665-.8763.307-1.8003.4601-2.7297.4522h-.746c-1.0273 0-1.973-.1513-2.8382-.4522-.8396-.2847-1.6044-.7516-2.238-1.3665-.6253-.6097-1.1146-1.3789-1.4668-2.3056-.3533-.9267-.5294-2.0163-.5294-3.2679 0-1.2365.1761-2.3172.5294-3.2447.3522-.92673.8381-1.69945 1.4553-2.31723.6181-.61869 1.3708-1.09022 2.2008-1.37892.8507-.3009 1.7805-.45135 2.7904-.45135h.7938Zm-.3127 10.2204c.6099 0 1.1026-.2413 1.4794-.7247.3774-.4833.5655-1.1839.5655-2.1035 0-.9187-.1891-1.6202-.5655-2.1035-.3768-.4834-.8695-.7246-1.4794-.7246h-.1921c-.6412 0-1.1469.2412-1.5151.7246-.3696.4833-.5534 1.184-.5534 2.1035 0 .9187.1838 1.6202.5534 2.1035.3691.4834.8739.7247 1.5151.7247h.1921Zm8.396-13.52392h15.395V21.0334h-5.773V7.84242h-3.8491V21.0334h-5.7729V3.20718ZM90.5684 6.5107c.9935 0 1.9161.15132 2.7658.45135.83.28851 1.5827.76003 2.2008 1.37892.6172.61778 1.1031 1.3905 1.4553 2.31723.3532.9275.5298 2.0082.5298 3.2447 0 1.2516-.1766 2.3412-.5298 3.2679-.3522.9267-.8381 1.6959-1.4553 2.3056-.6181.6105-1.3655 1.0773-2.1892 1.3665-.8415.3009-1.7516.4522-2.7297.4522h-.7459c-1.0264 0-1.9731-.1513-2.8383-.4522-.8396-.2848-1.6039-.7517-2.237-1.3665-.6263-.6097-1.1146-1.3789-1.4683-2.3056-.3518-.9267-.5288-2.0163-.5288-3.2679 0-1.2365.1766-2.3172.5298-3.2447.3527-.92673.8376-1.69945 1.4548-2.31723.6181-.61869 1.3709-1.09022 2.2008-1.37892.8507-.3009 1.7805-.45135 2.7905-.45135h.7947Zm-.3127 10.2204c.6089 0 1.1016-.2413 1.4794-.7247.3764-.4833.5646-1.1839.5646-2.1035 0-.9195-.1882-1.6202-.5646-2.1035-.3778-.4834-.8705-.7246-1.4794-.7246h-.193c-.6413 0-1.147.2412-1.5151.7246-.3697.4833-.5535 1.184-.5535 2.1035 0 .9187.1838 1.6202.5535 2.1035.3691.4834.8738.7247 1.5151.7247h.193Zm18.1613-2.2104h-.337l-3.656 3.1611v3.3516h-5.533V6.77242h5.533v5.37148h.481l3.512-3.04184V6.77242h5.533V21.0334h-5.533v-6.5127Zm21.721.1193c-.047 1.1724-.256 2.1783-.625 3.0178-.368.8403-.857 1.5338-1.467 2.0804-.616.5503-1.347.96-2.141 1.2-.818.2537-1.708.3801-2.671.3801h-.745c-1.026 0-1.976-.154-2.85-.4629-.849-.2929-1.621-.7678-2.261-1.3905-.634-.6187-1.128-1.3905-1.48-2.3181-.353-.9258-.521-2.0083-.505-3.2439.016-1.2365.201-2.3172.553-3.2447.353-.92673.838-1.69945 1.455-2.31723.62-.61956 1.373-1.09461 2.202-1.3905.85-.30891 1.779-.46288 2.79-.46288h.794c.946 0 1.831.12994 2.657.39166.799.24604 1.537.65484 2.166 1.2.617.53946 1.114 1.20887 1.492 2.00825.376.8012.589 1.7315.636 2.7935h-5.267c-.08-.6027-.301-1.054-.661-1.3549-.362-.3009-.807-.4513-1.336-.4513h-.217c-.625 0-1.122.2412-1.491.7246-.368.4833-.553 1.184-.553 2.1035 0 .9187.185 1.6202.553 2.1035.369.4834.866.7247 1.491.7247h.217c.562 0 1.026-.1781 1.395-.5342.369-.3569.578-.8759.626-1.5578h5.243v.0009Zm7.867 1.022h-1.01v5.3714h-5.533V6.77242h5.533v4.99138h1.034l2.79-4.99138h5.749l-3.704 6.63198 4.426 7.629h-6.158l-3.127-5.3714ZM167.679.121082c8.38-.89893 14.716 3.296078 14.716 9.638558 0 6.81686-5.831 13.28416-16.686 15.33176l3.661-18.45308 3.887.67423-2.423 12.31035c4.064-1.6231 7.169-5.1439 7.219-9.239.076-5.01907-5.073-6.99171-11.182-6.16769l.808-4.095128ZM155.461 20.8964l1.3-6.5922h4.065l-1.907 9.6136 3.913.6742 3.66-18.45305-3.913-.67424-1.04 5.24379h-4.069l1.399-7.09157-3.863-.72414-1.55 7.81571h-3.877v3.5957h3.163l-1.169 5.893 3.888.6992Zm-2.719-6.5922.714-3.5957h4.014l-.709 3.5957h-4.019Zm8.797-3.5957h1.116v3.5957h-1.829l.713-3.5957Z" fill="#1D1F20"/></svg>